<mxfile host="app.diagrams.net" modified="2024-02-19T20:09:51.489Z" agent="Mozilla/5.0 (X11; Linux x86_64) AppleWebKit/537.36 (KHTML, like Gecko) Chrome/121.0.0.0 Safari/537.36" etag="lj8x_qYqXyNLTBKK_vJO" version="23.1.5" type="device">
  <diagram name="Страница — 1" id="yb5IImHizDs5rh6jxTpZ">
    <mxGraphModel dx="1775" dy="970" grid="1" gridSize="10" guides="1" tooltips="1" connect="1" arrows="1" fold="1" page="1" pageScale="1" pageWidth="1169" pageHeight="827" math="0" shadow="0">
      <root>
        <mxCell id="0" />
        <mxCell id="1" parent="0" />
        <mxCell id="lL2CAoG1dnmoFTdGsA5F-5" style="edgeStyle=orthogonalEdgeStyle;rounded=0;orthogonalLoop=1;jettySize=auto;html=1;entryX=0;entryY=0.5;entryDx=0;entryDy=0;" edge="1" parent="1" source="lL2CAoG1dnmoFTdGsA5F-1" target="lL2CAoG1dnmoFTdGsA5F-4">
          <mxGeometry relative="1" as="geometry" />
        </mxCell>
        <mxCell id="lL2CAoG1dnmoFTdGsA5F-37" style="edgeStyle=orthogonalEdgeStyle;rounded=0;orthogonalLoop=1;jettySize=auto;html=1;entryX=0;entryY=0.5;entryDx=0;entryDy=0;" edge="1" parent="1" source="lL2CAoG1dnmoFTdGsA5F-1" target="lL2CAoG1dnmoFTdGsA5F-2">
          <mxGeometry relative="1" as="geometry" />
        </mxCell>
        <mxCell id="lL2CAoG1dnmoFTdGsA5F-40" style="edgeStyle=orthogonalEdgeStyle;rounded=0;orthogonalLoop=1;jettySize=auto;html=1;" edge="1" parent="1" source="lL2CAoG1dnmoFTdGsA5F-1" target="lL2CAoG1dnmoFTdGsA5F-39">
          <mxGeometry relative="1" as="geometry" />
        </mxCell>
        <mxCell id="lL2CAoG1dnmoFTdGsA5F-1" value="&lt;font style=&quot;font-size: 20px;&quot;&gt;&lt;b&gt;Major&lt;br&gt;idea&lt;/b&gt;&lt;/font&gt;" style="rounded=0;whiteSpace=wrap;html=1;" vertex="1" parent="1">
          <mxGeometry y="564" width="160" height="80" as="geometry" />
        </mxCell>
        <mxCell id="lL2CAoG1dnmoFTdGsA5F-38" style="edgeStyle=orthogonalEdgeStyle;rounded=0;orthogonalLoop=1;jettySize=auto;html=1;entryX=0.5;entryY=1;entryDx=0;entryDy=0;" edge="1" parent="1" source="lL2CAoG1dnmoFTdGsA5F-2" target="lL2CAoG1dnmoFTdGsA5F-6">
          <mxGeometry relative="1" as="geometry" />
        </mxCell>
        <mxCell id="lL2CAoG1dnmoFTdGsA5F-2" value="&lt;font style=&quot;font-size: 15px;&quot;&gt;Personal digital notes&lt;br&gt;(notion, obsidian, etc.)&lt;br&gt;&lt;/font&gt;" style="rounded=0;whiteSpace=wrap;html=1;" vertex="1" parent="1">
          <mxGeometry x="200" y="655" width="160" height="80" as="geometry" />
        </mxCell>
        <mxCell id="lL2CAoG1dnmoFTdGsA5F-7" style="edgeStyle=orthogonalEdgeStyle;rounded=0;orthogonalLoop=1;jettySize=auto;html=1;" edge="1" parent="1" source="lL2CAoG1dnmoFTdGsA5F-4" target="lL2CAoG1dnmoFTdGsA5F-6">
          <mxGeometry relative="1" as="geometry" />
        </mxCell>
        <mxCell id="lL2CAoG1dnmoFTdGsA5F-4" value="&lt;font style=&quot;font-size: 15px;&quot;&gt;Personal physical docs&lt;br&gt;(literally on paper lmao)&lt;br&gt;&lt;/font&gt;" style="rounded=0;whiteSpace=wrap;html=1;" vertex="1" parent="1">
          <mxGeometry x="200" y="470" width="160" height="80" as="geometry" />
        </mxCell>
        <mxCell id="lL2CAoG1dnmoFTdGsA5F-11" style="edgeStyle=orthogonalEdgeStyle;rounded=0;orthogonalLoop=1;jettySize=auto;html=1;" edge="1" parent="1" source="lL2CAoG1dnmoFTdGsA5F-6" target="lL2CAoG1dnmoFTdGsA5F-9">
          <mxGeometry relative="1" as="geometry" />
        </mxCell>
        <mxCell id="lL2CAoG1dnmoFTdGsA5F-6" value="&lt;font style=&quot;font-size: 15px;&quot;&gt;Meeting thread&lt;br&gt;(discord)&lt;br&gt;&lt;/font&gt;" style="rounded=0;whiteSpace=wrap;html=1;" vertex="1" parent="1">
          <mxGeometry x="410" y="564" width="160" height="80" as="geometry" />
        </mxCell>
        <mxCell id="lL2CAoG1dnmoFTdGsA5F-13" style="edgeStyle=orthogonalEdgeStyle;rounded=0;orthogonalLoop=1;jettySize=auto;html=1;" edge="1" parent="1" source="lL2CAoG1dnmoFTdGsA5F-9" target="lL2CAoG1dnmoFTdGsA5F-12">
          <mxGeometry relative="1" as="geometry" />
        </mxCell>
        <mxCell id="lL2CAoG1dnmoFTdGsA5F-9" value="&lt;font style=&quot;font-size: 15px;&quot;&gt;Discussed during meeting&lt;br&gt;(every sunday)&lt;br&gt;&lt;/font&gt;" style="rounded=0;whiteSpace=wrap;html=1;" vertex="1" parent="1">
          <mxGeometry x="590" y="564" width="160" height="80" as="geometry" />
        </mxCell>
        <mxCell id="lL2CAoG1dnmoFTdGsA5F-15" style="edgeStyle=orthogonalEdgeStyle;rounded=0;orthogonalLoop=1;jettySize=auto;html=1;" edge="1" parent="1" source="lL2CAoG1dnmoFTdGsA5F-12" target="lL2CAoG1dnmoFTdGsA5F-14">
          <mxGeometry relative="1" as="geometry" />
        </mxCell>
        <mxCell id="lL2CAoG1dnmoFTdGsA5F-19" style="edgeStyle=orthogonalEdgeStyle;rounded=0;orthogonalLoop=1;jettySize=auto;html=1;" edge="1" parent="1" source="lL2CAoG1dnmoFTdGsA5F-12" target="lL2CAoG1dnmoFTdGsA5F-18">
          <mxGeometry relative="1" as="geometry" />
        </mxCell>
        <mxCell id="lL2CAoG1dnmoFTdGsA5F-26" style="edgeStyle=orthogonalEdgeStyle;rounded=0;orthogonalLoop=1;jettySize=auto;html=1;" edge="1" parent="1" source="lL2CAoG1dnmoFTdGsA5F-12" target="lL2CAoG1dnmoFTdGsA5F-24">
          <mxGeometry relative="1" as="geometry" />
        </mxCell>
        <mxCell id="lL2CAoG1dnmoFTdGsA5F-12" value="&lt;font style=&quot;font-size: 15px;&quot;&gt;Vote&lt;br&gt;&lt;/font&gt;" style="rounded=0;whiteSpace=wrap;html=1;" vertex="1" parent="1">
          <mxGeometry x="770" y="564" width="160" height="80" as="geometry" />
        </mxCell>
        <mxCell id="lL2CAoG1dnmoFTdGsA5F-14" value="&lt;font style=&quot;font-size: 15px;&quot;&gt;Trash&lt;br&gt;&lt;/font&gt;" style="rounded=0;whiteSpace=wrap;html=1;" vertex="1" parent="1">
          <mxGeometry x="770" y="723" width="160" height="80" as="geometry" />
        </mxCell>
        <mxCell id="lL2CAoG1dnmoFTdGsA5F-16" value="&lt;font style=&quot;font-size: 19px;&quot;&gt;Declined&lt;br&gt;(majority against)&lt;br&gt;&lt;/font&gt;" style="text;html=1;align=center;verticalAlign=middle;whiteSpace=wrap;rounded=0;" vertex="1" parent="1">
          <mxGeometry x="765" y="668" width="170" height="30" as="geometry" />
        </mxCell>
        <mxCell id="lL2CAoG1dnmoFTdGsA5F-21" style="edgeStyle=orthogonalEdgeStyle;rounded=0;orthogonalLoop=1;jettySize=auto;html=1;entryX=0.75;entryY=1;entryDx=0;entryDy=0;" edge="1" parent="1" source="lL2CAoG1dnmoFTdGsA5F-18" target="lL2CAoG1dnmoFTdGsA5F-12">
          <mxGeometry relative="1" as="geometry">
            <mxPoint x="1097.5" y="690" as="targetPoint" />
            <Array as="points">
              <mxPoint x="1097" y="667" />
              <mxPoint x="890" y="667" />
            </Array>
          </mxGeometry>
        </mxCell>
        <mxCell id="lL2CAoG1dnmoFTdGsA5F-28" style="edgeStyle=orthogonalEdgeStyle;rounded=0;orthogonalLoop=1;jettySize=auto;html=1;" edge="1" parent="1" source="lL2CAoG1dnmoFTdGsA5F-18" target="lL2CAoG1dnmoFTdGsA5F-24">
          <mxGeometry relative="1" as="geometry">
            <mxPoint x="1097.5" y="450" as="targetPoint" />
            <Array as="points">
              <mxPoint x="1097" y="460" />
              <mxPoint x="1098" y="440" />
            </Array>
          </mxGeometry>
        </mxCell>
        <mxCell id="lL2CAoG1dnmoFTdGsA5F-18" value="&lt;font style=&quot;font-size: 15px;&quot;&gt;Further discussion&lt;br&gt;&lt;/font&gt;" style="rounded=0;whiteSpace=wrap;html=1;" vertex="1" parent="1">
          <mxGeometry x="1034" y="564" width="135" height="80" as="geometry" />
        </mxCell>
        <mxCell id="lL2CAoG1dnmoFTdGsA5F-20" value="&lt;font style=&quot;font-size: 14px;&quot;&gt;indeterminate&lt;br&gt;&lt;span style=&quot;&quot;&gt;(minority against)&lt;/span&gt;&lt;br&gt;&lt;/font&gt;" style="text;html=1;align=center;verticalAlign=middle;whiteSpace=wrap;rounded=0;" vertex="1" parent="1">
          <mxGeometry x="930" y="563" width="100" height="30" as="geometry" />
        </mxCell>
        <mxCell id="lL2CAoG1dnmoFTdGsA5F-22" value="&lt;font style=&quot;font-size: 19px;&quot;&gt;Compromise suggested&lt;br&gt;&lt;/font&gt;" style="text;html=1;align=center;verticalAlign=middle;whiteSpace=wrap;rounded=0;" vertex="1" parent="1">
          <mxGeometry x="960" y="680" width="170" height="30" as="geometry" />
        </mxCell>
        <mxCell id="lL2CAoG1dnmoFTdGsA5F-23" value="&lt;font style=&quot;font-size: 19px;&quot;&gt;Compromise cannot be reached&lt;br&gt;(still majority support)&lt;br&gt;&lt;/font&gt;" style="text;html=1;align=center;verticalAlign=middle;whiteSpace=wrap;rounded=0;" vertex="1" parent="1">
          <mxGeometry x="950" y="390" width="190" height="30" as="geometry" />
        </mxCell>
        <mxCell id="lL2CAoG1dnmoFTdGsA5F-31" style="edgeStyle=orthogonalEdgeStyle;rounded=0;orthogonalLoop=1;jettySize=auto;html=1;" edge="1" parent="1" source="lL2CAoG1dnmoFTdGsA5F-24" target="lL2CAoG1dnmoFTdGsA5F-30">
          <mxGeometry relative="1" as="geometry" />
        </mxCell>
        <mxCell id="lL2CAoG1dnmoFTdGsA5F-33" style="edgeStyle=orthogonalEdgeStyle;rounded=0;orthogonalLoop=1;jettySize=auto;html=1;entryX=0.5;entryY=1;entryDx=0;entryDy=0;" edge="1" parent="1" source="lL2CAoG1dnmoFTdGsA5F-24" target="lL2CAoG1dnmoFTdGsA5F-29">
          <mxGeometry relative="1" as="geometry" />
        </mxCell>
        <mxCell id="lL2CAoG1dnmoFTdGsA5F-24" value="&lt;font style=&quot;&quot;&gt;&lt;b style=&quot;&quot;&gt;&lt;font style=&quot;font-size: 20px;&quot;&gt;Forming stage&lt;/font&gt;&lt;/b&gt;&lt;br&gt;&lt;/font&gt;" style="rounded=0;whiteSpace=wrap;html=1;" vertex="1" parent="1">
          <mxGeometry x="770" y="400" width="160" height="80" as="geometry" />
        </mxCell>
        <mxCell id="lL2CAoG1dnmoFTdGsA5F-27" value="&lt;font style=&quot;font-size: 19px;&quot;&gt;Accepted&lt;br&gt;(100% for)&lt;br&gt;&lt;/font&gt;" style="text;html=1;align=center;verticalAlign=middle;whiteSpace=wrap;rounded=0;" vertex="1" parent="1">
          <mxGeometry x="765" y="508" width="170" height="30" as="geometry" />
        </mxCell>
        <mxCell id="lL2CAoG1dnmoFTdGsA5F-43" style="edgeStyle=orthogonalEdgeStyle;rounded=0;orthogonalLoop=1;jettySize=auto;html=1;entryX=0.5;entryY=0;entryDx=0;entryDy=0;" edge="1" parent="1" source="lL2CAoG1dnmoFTdGsA5F-29" target="lL2CAoG1dnmoFTdGsA5F-30">
          <mxGeometry relative="1" as="geometry">
            <mxPoint x="680" y="340" as="targetPoint" />
            <Array as="points">
              <mxPoint x="670" y="340" />
            </Array>
          </mxGeometry>
        </mxCell>
        <mxCell id="lL2CAoG1dnmoFTdGsA5F-29" value="&lt;font style=&quot;font-size: 15px;&quot;&gt;Amendment&lt;br&gt;(an edit to an existing proposal)&lt;br&gt;&lt;/font&gt;" style="rounded=0;whiteSpace=wrap;html=1;" vertex="1" parent="1">
          <mxGeometry x="770" y="300" width="160" height="80" as="geometry" />
        </mxCell>
        <mxCell id="lL2CAoG1dnmoFTdGsA5F-44" style="edgeStyle=orthogonalEdgeStyle;rounded=0;orthogonalLoop=1;jettySize=auto;html=1;" edge="1" parent="1" source="lL2CAoG1dnmoFTdGsA5F-30" target="lL2CAoG1dnmoFTdGsA5F-36">
          <mxGeometry relative="1" as="geometry" />
        </mxCell>
        <mxCell id="lL2CAoG1dnmoFTdGsA5F-45" style="edgeStyle=orthogonalEdgeStyle;rounded=0;orthogonalLoop=1;jettySize=auto;html=1;entryX=0.5;entryY=1;entryDx=0;entryDy=0;" edge="1" parent="1" source="lL2CAoG1dnmoFTdGsA5F-30" target="lL2CAoG1dnmoFTdGsA5F-35">
          <mxGeometry relative="1" as="geometry" />
        </mxCell>
        <mxCell id="lL2CAoG1dnmoFTdGsA5F-46" style="edgeStyle=orthogonalEdgeStyle;rounded=0;orthogonalLoop=1;jettySize=auto;html=1;entryX=0.5;entryY=1;entryDx=0;entryDy=0;" edge="1" parent="1" source="lL2CAoG1dnmoFTdGsA5F-30" target="lL2CAoG1dnmoFTdGsA5F-34">
          <mxGeometry relative="1" as="geometry">
            <Array as="points">
              <mxPoint x="520" y="440" />
            </Array>
          </mxGeometry>
        </mxCell>
        <mxCell id="lL2CAoG1dnmoFTdGsA5F-30" value="&lt;font style=&quot;font-size: 15px;&quot;&gt;Proposal&lt;br&gt;(a new mechanic)&lt;br&gt;&lt;/font&gt;" style="rounded=0;whiteSpace=wrap;html=1;" vertex="1" parent="1">
          <mxGeometry x="590" y="400" width="160" height="80" as="geometry" />
        </mxCell>
        <mxCell id="lL2CAoG1dnmoFTdGsA5F-34" value="&lt;font style=&quot;&quot;&gt;&lt;b style=&quot;&quot;&gt;&lt;font style=&quot;font-size: 20px;&quot;&gt;Trello board&lt;/font&gt;&lt;/b&gt;&lt;br&gt;&lt;/font&gt;" style="rounded=0;whiteSpace=wrap;html=1;" vertex="1" parent="1">
          <mxGeometry x="440" y="270" width="160" height="80" as="geometry" />
        </mxCell>
        <mxCell id="lL2CAoG1dnmoFTdGsA5F-35" value="&lt;font style=&quot;font-size: 20px;&quot;&gt;&lt;b&gt;Figma doc&lt;br&gt;(if applicable)&lt;/b&gt;&lt;br&gt;&lt;/font&gt;" style="rounded=0;whiteSpace=wrap;html=1;" vertex="1" parent="1">
          <mxGeometry x="240" y="270" width="160" height="80" as="geometry" />
        </mxCell>
        <mxCell id="lL2CAoG1dnmoFTdGsA5F-36" value="&lt;font style=&quot;font-size: 20px;&quot;&gt;&lt;b&gt;MM notion&lt;br style=&quot;border-color: var(--border-color);&quot;&gt;(if applicable)&lt;/b&gt;&lt;br&gt;&lt;/font&gt;" style="rounded=0;whiteSpace=wrap;html=1;" vertex="1" parent="1">
          <mxGeometry x="40" y="270" width="160" height="80" as="geometry" />
        </mxCell>
        <mxCell id="lL2CAoG1dnmoFTdGsA5F-41" style="edgeStyle=orthogonalEdgeStyle;rounded=0;orthogonalLoop=1;jettySize=auto;html=1;" edge="1" parent="1" source="lL2CAoG1dnmoFTdGsA5F-39" target="lL2CAoG1dnmoFTdGsA5F-6">
          <mxGeometry relative="1" as="geometry" />
        </mxCell>
        <mxCell id="lL2CAoG1dnmoFTdGsA5F-39" value="&lt;font style=&quot;font-size: 15px;&quot;&gt;#modpack-discussion&lt;br&gt;(discord)&lt;br&gt;&lt;/font&gt;" style="rounded=0;whiteSpace=wrap;html=1;" vertex="1" parent="1">
          <mxGeometry x="200" y="564" width="160" height="80" as="geometry" />
        </mxCell>
        <mxCell id="lL2CAoG1dnmoFTdGsA5F-51" style="edgeStyle=orthogonalEdgeStyle;rounded=0;orthogonalLoop=1;jettySize=auto;html=1;entryX=0.5;entryY=0;entryDx=0;entryDy=0;" edge="1" parent="1" source="lL2CAoG1dnmoFTdGsA5F-47" target="lL2CAoG1dnmoFTdGsA5F-50">
          <mxGeometry relative="1" as="geometry" />
        </mxCell>
        <mxCell id="lL2CAoG1dnmoFTdGsA5F-57" style="edgeStyle=orthogonalEdgeStyle;rounded=0;orthogonalLoop=1;jettySize=auto;html=1;" edge="1" parent="1" source="lL2CAoG1dnmoFTdGsA5F-47" target="lL2CAoG1dnmoFTdGsA5F-56">
          <mxGeometry relative="1" as="geometry" />
        </mxCell>
        <mxCell id="lL2CAoG1dnmoFTdGsA5F-47" value="&lt;font style=&quot;font-size: 20px;&quot;&gt;&lt;b&gt;Minor&lt;br&gt;idea&lt;/b&gt;&lt;/font&gt;" style="rounded=0;whiteSpace=wrap;html=1;" vertex="1" parent="1">
          <mxGeometry x="960" y="40" width="160" height="80" as="geometry" />
        </mxCell>
        <mxCell id="lL2CAoG1dnmoFTdGsA5F-54" style="edgeStyle=orthogonalEdgeStyle;rounded=0;orthogonalLoop=1;jettySize=auto;html=1;entryX=0.5;entryY=0;entryDx=0;entryDy=0;" edge="1" parent="1" source="lL2CAoG1dnmoFTdGsA5F-50" target="lL2CAoG1dnmoFTdGsA5F-52">
          <mxGeometry relative="1" as="geometry" />
        </mxCell>
        <mxCell id="lL2CAoG1dnmoFTdGsA5F-50" value="&lt;span style=&quot;font-size: 15px;&quot;&gt;Out-of-meeting&lt;br&gt;suggestion&lt;br&gt;(still needs discussion)&lt;br&gt;&lt;/span&gt;" style="rounded=0;whiteSpace=wrap;html=1;" vertex="1" parent="1">
          <mxGeometry x="960" y="140" width="160" height="80" as="geometry" />
        </mxCell>
        <mxCell id="lL2CAoG1dnmoFTdGsA5F-55" style="edgeStyle=orthogonalEdgeStyle;rounded=0;orthogonalLoop=1;jettySize=auto;html=1;entryX=1;entryY=0.25;entryDx=0;entryDy=0;" edge="1" parent="1" source="lL2CAoG1dnmoFTdGsA5F-52" target="lL2CAoG1dnmoFTdGsA5F-12">
          <mxGeometry relative="1" as="geometry">
            <Array as="points">
              <mxPoint x="940" y="280" />
              <mxPoint x="940" y="584" />
            </Array>
          </mxGeometry>
        </mxCell>
        <mxCell id="lL2CAoG1dnmoFTdGsA5F-52" value="&lt;span style=&quot;font-size: 15px;&quot;&gt;#modpack-discussion&lt;/span&gt;&lt;br style=&quot;border-color: var(--border-color); font-size: 15px;&quot;&gt;&lt;span style=&quot;font-size: 15px;&quot;&gt;(discord)&lt;/span&gt;&lt;span style=&quot;font-size: 15px;&quot;&gt;&lt;br&gt;&lt;/span&gt;" style="rounded=0;whiteSpace=wrap;html=1;" vertex="1" parent="1">
          <mxGeometry x="960" y="240" width="160" height="80" as="geometry" />
        </mxCell>
        <mxCell id="lL2CAoG1dnmoFTdGsA5F-58" style="edgeStyle=orthogonalEdgeStyle;rounded=0;orthogonalLoop=1;jettySize=auto;html=1;" edge="1" parent="1" source="lL2CAoG1dnmoFTdGsA5F-56" target="lL2CAoG1dnmoFTdGsA5F-34">
          <mxGeometry relative="1" as="geometry" />
        </mxCell>
        <mxCell id="lL2CAoG1dnmoFTdGsA5F-56" value="&lt;span style=&quot;font-size: 15px;&quot;&gt;Order&lt;br&gt;(doesn&#39;t require discussion)&lt;br&gt;&lt;/span&gt;" style="rounded=0;whiteSpace=wrap;html=1;" vertex="1" parent="1">
          <mxGeometry x="775" y="40" width="160" height="80" as="geometry" />
        </mxCell>
        <mxCell id="lL2CAoG1dnmoFTdGsA5F-64" style="edgeStyle=orthogonalEdgeStyle;rounded=0;orthogonalLoop=1;jettySize=auto;html=1;entryX=0.5;entryY=1;entryDx=0;entryDy=0;" edge="1" parent="1" source="lL2CAoG1dnmoFTdGsA5F-59" target="lL2CAoG1dnmoFTdGsA5F-63">
          <mxGeometry relative="1" as="geometry" />
        </mxCell>
        <mxCell id="lL2CAoG1dnmoFTdGsA5F-59" value="" style="swimlane;startSize=0;fillColor=default;strokeColor=#b85450;fillStyle=auto;swimlaneFillColor=none;swimlaneLine=1;glass=0;shadow=0;rounded=0;strokeWidth=5;" vertex="1" parent="1">
          <mxGeometry x="20" y="250" width="590" height="120" as="geometry">
            <mxRectangle x="20" y="250" width="50" height="40" as="alternateBounds" />
          </mxGeometry>
        </mxCell>
        <mxCell id="lL2CAoG1dnmoFTdGsA5F-60" value="&lt;b&gt;&lt;font style=&quot;font-size: 16px;&quot;&gt;Outputs&lt;/font&gt;&lt;/b&gt;" style="text;html=1;align=center;verticalAlign=middle;whiteSpace=wrap;rounded=0;" vertex="1" parent="1">
          <mxGeometry x="20" y="220" width="60" height="30" as="geometry" />
        </mxCell>
        <mxCell id="lL2CAoG1dnmoFTdGsA5F-62" value="&lt;font style=&quot;font-size: 20px;&quot;&gt;&lt;b&gt;Implementation&lt;/b&gt;&lt;br&gt;&lt;/font&gt;" style="rounded=0;whiteSpace=wrap;html=1;" vertex="1" parent="1">
          <mxGeometry x="40" y="40" width="160" height="80" as="geometry" />
        </mxCell>
        <mxCell id="lL2CAoG1dnmoFTdGsA5F-65" style="edgeStyle=orthogonalEdgeStyle;rounded=0;orthogonalLoop=1;jettySize=auto;html=1;entryX=1;entryY=0.5;entryDx=0;entryDy=0;" edge="1" parent="1" source="lL2CAoG1dnmoFTdGsA5F-63" target="lL2CAoG1dnmoFTdGsA5F-62">
          <mxGeometry relative="1" as="geometry" />
        </mxCell>
        <mxCell id="lL2CAoG1dnmoFTdGsA5F-63" value="&lt;font style=&quot;&quot;&gt;&lt;b&gt;&lt;font style=&quot;font-size: 20px;&quot;&gt;Assignation&lt;/font&gt;&lt;/b&gt;&lt;br&gt;&lt;/font&gt;" style="rounded=0;whiteSpace=wrap;html=1;" vertex="1" parent="1">
          <mxGeometry x="235" y="40" width="160" height="80" as="geometry" />
        </mxCell>
        <mxCell id="lL2CAoG1dnmoFTdGsA5F-67" value="" style="swimlane;startSize=0;strokeWidth=5;fillColor=#dae8fc;strokeColor=#6c8ebf;" vertex="1" parent="1">
          <mxGeometry x="30" y="30" width="380" height="100" as="geometry" />
        </mxCell>
        <mxCell id="lL2CAoG1dnmoFTdGsA5F-68" value="&lt;b&gt;&lt;font style=&quot;font-size: 16px;&quot;&gt;Execution&lt;/font&gt;&lt;/b&gt;" style="text;html=1;align=center;verticalAlign=middle;whiteSpace=wrap;rounded=0;" vertex="1" parent="1">
          <mxGeometry x="30" y="130" width="80" height="30" as="geometry" />
        </mxCell>
      </root>
    </mxGraphModel>
  </diagram>
</mxfile>
